Coordinates
version=1
nRows=24
nColumns=22
inDegrees=yes

Units are S.I. units (second, meters, Newtons, ...)
If the header above contains a line with 'inDegrees', this indicates whether rotational values are in degrees (yes) or radians (no).

endheader
time	pelvis_tilt	pelvis_list	pelvis_rotation	pelvis_tx	pelvis_ty	pelvis_tz	hip_flexion_r	hip_adduction_r	hip_rotation_r	knee_angle_r	ankle_angle_r	subtalar_angle_r	hip_flexion_l	hip_adduction_l	hip_rotation_l	knee_angle_l	ankle_angle_l	subtalar_angle_l	lumbar_extension	lumbar_bending	lumbar_rotation
      2.36000000	      7.67480590	      5.08836072	    -43.52651944	     -0.08596497	      0.88387994	     -0.14025980	     11.77851763	     -6.17052782	      7.41120124	    -71.47928511	      6.98771986	    -10.04196319	     15.16193878	      4.72078364	     -5.31413202	    -26.35645781	     10.37464519	      1.33770358	    -11.35887317	    -10.86798369	      6.81142307
      2.37000000	      7.74405579	      4.76999920	    -44.16062289	     -0.07910766	      0.88602614	     -0.13557837	     13.26111353	     -5.91523488	      6.93992062	    -72.21429828	      7.70530017	    -10.60603428	     13.90895760	      4.57084141	     -5.85626873	    -25.75093194	     10.64554057	      1.46242609	    -11.64946308	    -10.62465886	      6.47505822
      2.38000000	      7.81799677	      4.40737655	    -44.72882567	     -0.07216159	      0.88821469	     -0.13084414	     14.57294374	     -5.71341613	      6.28793606	    -72.58338246	      8.41305422	    -11.10346906	     12.58781162	      4.42656354	     -6.33989252	    -25.09916136	     10.91194785	      1.57770612	    -11.96390416	    -10.33417857	      6.09160618
      2.39000000	      7.88908387	      4.00711357	    -45.16115109	     -0.06504561	      0.89040326	     -0.12614449	     15.69628116	     -5.60713718	      5.37046804	    -72.59093230	      9.19757302	    -11.82158696	     11.22945210	      4.29890267	     -6.68965061	    -24.43218021	     11.14133183	      1.71718743	    -12.30451463	     -9.98213109	      5.58208766
      2.40000000	      7.95475614	      3.60714334	    -45.53736683	     -0.05787470	      0.89248684	     -0.12141087	     16.70270265	     -5.58787033	      4.30858836	    -72.29693197	      9.99354048	    -12.58524114	      9.86627623	      4.18025149	     -7.03171965	    -23.75262005	     11.35120954	      1.84525310	    -12.62836242	     -9.61552494	      5.03315310
      2.41000000	      8.00992311	      3.22314390	    -45.88240192	     -0.05068545	      0.89440215	     -0.11663028	     17.61390827	     -5.65179152	      3.13814121	    -71.72318025	     10.86933323	    -13.63837220	      8.52410914	      4.06796372	     -7.40980253	    -23.07744558	     11.54923371	      1.98978345	    -12.91949266	     -9.24858616	      4.51398531
      2.42000000	      8.09166874	      2.81163323	    -46.16889491	     -0.04345243	      0.89624225	     -0.11182892	     18.35443035	     -5.79204020	      1.85411197	    -70.87619887	     11.69330887	    -14.50468316	      7.12510400	      3.97369923	     -7.72841826	    -22.37396778	     11.77451329	      2.10920740	    -13.25460950	     -8.86797516	      3.94286606
      2.43000000	      8.17154692	      2.40298335	    -46.42150177	     -0.03624058	      0.89789576	     -0.10699553	     18.98823317	     -5.98580573	      0.49916170	    -69.79179210	     12.48914706	    -15.36381524	      5.74410692	      3.88253234	     -8.04905893	    -21.69451281	     12.01113768	      2.22282013	    -13.58593422	     -8.48448982	      3.37153096
      2.44000000	      8.23620217	      2.00886292	    -46.65660484	     -0.02910002	      0.89931498	     -0.10212169	     19.54565096	     -6.19937445	     -0.87269270	    -68.49349457	     13.24578706	    -16.18912514	      4.40212771	      3.79169609	     -8.36618422	    -21.03826698	     12.27726401	      2.32764932	    -13.89841841	     -8.09957403	      2.81044036
      2.45000000	      8.28282322	      1.63199483	    -46.88365854	     -0.02204755	      0.90046803	     -0.09717364	     20.03859270	     -6.42295821	     -2.25153830	    -67.00653647	     13.94235262	    -16.92219295	      3.11708630	      3.69789115	     -8.68197900	    -20.43644408	     12.58252397	      2.41612856	    -14.17967104	     -7.72084602	      2.26309330
      2.46000000	      8.28779215	      1.27715334	    -47.07223103	     -0.01507293	      0.90132801	     -0.09221587	     20.48789495	     -6.64782326	     -3.66424006	    -65.34253303	     14.52383969	    -17.30081673	      1.92702924	      3.58905701	     -8.94771386	    -19.91176630	     12.96933789	      2.46951058	    -14.42154325	     -7.32202516	      1.70916909
      2.47000000	      8.32577151	      0.93096207	    -47.29146469	     -0.00826323	      0.90197056	     -0.08713211	     20.84643081	     -6.89565866	     -5.04239337	    -63.52167849	     15.08740525	    -17.98982488	      0.75599218	      3.49492787	     -9.34125772	    -19.45407270	     13.31857687	      2.51755740	    -14.68842911	     -6.97866780	      1.22070384
      2.48000000	      8.31583207	      0.63344396	    -47.52021457	     -0.00159373	      0.90226806	     -0.08195714	     21.20755799	     -7.11086666	     -6.36895278	    -61.55944585	     15.66332402	    -18.56408537	     -0.31345690	      3.40479321	     -9.68732249	    -19.04263308	     13.75597632	      2.53520480	    -14.87764742	     -6.64388016	      0.74897301
      2.49000000	      8.26894308	      0.34833044	    -47.72639637	      0.00497139	      0.90229868	     -0.07671121	     21.52362151	     -7.31654229	     -7.74168587	    -59.45676389	     16.11879252	    -18.85242055	     -1.29836654	      3.29060175	     -9.99535876	    -18.71892082	     14.27637035	      2.52055960	    -15.03266911	     -6.29919083	      0.33250814
      2.50000000	      8.23078314	      0.07027984	    -47.95709177	      0.01137453	      0.90212210	     -0.07130694	     21.76709855	     -7.50177194	     -9.07233640	    -57.22408308	     16.55322539	    -19.11649458	     -2.26845952	      3.18439277	    -10.33256902	    -18.42803971	     14.80762053	      2.46737003	    -15.18911395	     -5.98815830	     -0.05810520
      2.51000000	      8.18890098	     -0.20496434	    -48.19861552	      0.01763755	      0.90175634	     -0.06576749	     21.93994512	     -7.65829254	    -10.38873047	    -54.86253757	     16.92523297	    -19.29477509	     -3.21060348	      3.07547047	    -10.67187409	    -18.18283273	     15.35726291	      2.37624739	    -15.34278320	     -5.69347447	     -0.39740258
      2.52000000	      8.13752743	     -0.48561934	    -48.45373640	      0.02375929	      0.90122366	     -0.06004909	     22.03514543	     -7.76843720	    -11.70300197	    -52.37323722	     17.22258773	    -19.32417685	     -4.13192648	      2.95191255	    -11.00415283	    -17.98256841	     15.93102922	      2.25983357	    -15.49027372	     -5.40784488	     -0.69059062
      2.53000000	      8.08990594	     -0.79524680	    -48.71741360	      0.02973327	      0.90059621	     -0.05412681	     22.01504830	     -7.82659914	    -13.05015176	    -49.75368922	     17.42127397	    -19.17708853	     -5.06718753	      2.80690832	    -11.31480642	    -17.81785852	     16.50011941	      2.11972382	    -15.66038830	     -5.13175989	     -0.92993971
      2.54000000	      8.06252495	     -1.14177337	    -48.97625516	      0.03560816	      0.89992488	     -0.04802974	     21.85563761	     -7.83881183	    -14.44307388	    -47.00619566	     17.55473184	    -18.71616333	     -6.04269389	      2.65234058	    -11.59896772	    -17.67224457	     17.04833346	      1.95504537	    -15.87452924	     -4.85729266	     -1.13912249
      2.55000000	      7.99446021	     -1.52075628	    -49.22015435	      0.04135485	      0.89916125	     -0.04174333	     21.60290692	     -7.75545646	    -15.93088816	    -44.13932381	     17.52893135	    -18.21155833	     -6.98276521	      2.42619999	    -11.86318464	    -17.60303965	     17.63919529	      1.83354630	    -16.08099158	     -4.54612444	     -1.29715148
      2.56000000	      7.95912523	     -1.95040583	    -49.44628409	      0.04701878	      0.89842010	     -0.03524741	     21.18713284	     -7.61045649	    -17.49175317	    -41.16521683	     17.50277197	    -17.31314023	     -8.00223841	      2.18885070	    -12.08550403	    -17.51899903	     18.15726216	      1.70836128	    -16.34747784	     -4.23863195	     -1.46291748
      2.57000000	      7.89472043	     -2.40732655	    -49.64545322	      0.05260178	      0.89759920	     -0.02859215	     20.69589839	     -7.38747296	    -19.19235153	    -38.13954753	     17.33868151	    -16.18953870	     -8.97995180	      1.88306825	    -12.33353836	    -17.53206036	     18.71929610	      1.61628713	    -16.61040211	     -3.89713890	     -1.59312624
      2.58000000	      7.83713975	     -2.92815695	    -49.81065662	      0.05811596	      0.89682233	     -0.02173163	     20.05603548	     -7.05070535	    -20.97018930	    -35.03454503	     17.16817195	    -15.19209013	    -10.03430625	      1.53278333	    -12.49650488	    -17.52335674	     19.23354131	      1.54592547	    -16.92570722	     -3.52430101	     -1.73478621
      2.59000000	      7.76812215	     -3.46511415	    -49.94895572	      0.06356251	      0.89597998	     -0.01469585	     19.36839567	     -6.63534196	    -22.84148588	    -31.94873527	     16.93872989	    -13.95080256	    -11.07337825	      1.13841655	    -12.67878783	    -17.56928173	     19.73690481	      1.50680456	    -17.23911507	     -3.14018107	     -1.86920915
